<svg xmlns="http://www.w3.org/2000/svg" viewBox="0 0 355.86 99.11"><defs><style>.cls-1{fill:#071230;}.cls-2{fill:#fafcff;}</style></defs><g id="Layer_2" data-name="Layer 2"><g id="Layer_1-2" data-name="Layer 1"><path class="cls-1" d="M136.3,49.55H115.54c11.46,0,20.76,11.09,20.76,24.78a27.22,27.22,0,0,1-6.09,17.52,19.13,19.13,0,0,1-14.67,7.26h-61V49.55H75.28c-11.46,0-20.75-11.09-20.75-24.77A27.25,27.25,0,0,1,60.61,7.26,19.15,19.15,0,0,1,75.28,0h61Z"/><path class="cls-2" d="M174.45,43.4a19.74,19.74,0,0,1-7.08-1.25A16.48,16.48,0,0,1,158,33.2a17.08,17.08,0,0,1-1.34-6.82A17,17,0,0,1,158,19.57a16.36,16.36,0,0,1,3.76-5.41,17,17,0,0,1,5.67-3.55,19.59,19.59,0,0,1,7.09-1.24,19.37,19.37,0,0,1,7.73,1.48A15,15,0,0,1,188,15.2l-4.89,4.51a11.34,11.34,0,0,0-3.76-2.89,10.58,10.58,0,0,0-4.51-1,11.33,11.33,0,0,0-4.23.76,9.53,9.53,0,0,0-3.34,2.16,9.77,9.77,0,0,0-2.18,3.33,11.36,11.36,0,0,0-.78,4.28,11.32,11.32,0,0,0,.78,4.28A9.81,9.81,0,0,0,167.3,34a9.53,9.53,0,0,0,3.34,2.16,11.53,11.53,0,0,0,4.23.75,10.58,10.58,0,0,0,4.51-1A11.38,11.38,0,0,0,183.14,33L188,37.52a15.25,15.25,0,0,1-5.81,4.37A19.3,19.3,0,0,1,174.45,43.4Z"/><path class="cls-2" d="M187.75,42.83l14.66-32.9h7.52l14.71,32.9h-8l-12-29h3l-12.08,29Zm7.33-7,2-5.78H214l2.07,5.78Z"/><path class="cls-2" d="M228.07,42.83V9.93h14.06q6.85,0,10.67,3.17a10.82,10.82,0,0,1,3.8,8.77,11.28,11.28,0,0,1-1.74,6.32,11.06,11.06,0,0,1-4.93,4.07,18.78,18.78,0,0,1-7.62,1.41h-10l3.39-3.34v12.5Zm7.62-11.65L232.3,27.6h9.59a7.86,7.86,0,0,0,5.27-1.52,5.34,5.34,0,0,0,1.73-4.21,5.31,5.31,0,0,0-1.73-4.23,7.91,7.91,0,0,0-5.27-1.5H232.3l3.39-3.62ZM249,42.83l-8.23-11.94h8.13l8.32,11.94Z"/><path class="cls-2" d="M262.62,42.83V9.93h24.86V16h-17.3V36.72h17.91v6.11Zm7-13.72V23.19h15.84v5.92Z"/><path class="cls-2" d="M294.15,42.83V9.93H319V16h-17.3V36.72h17.91v6.11Zm7-13.72V23.19H317v5.92Z"/><path class="cls-2" d="M325.69,42.83V9.93h14.05q6.87,0,10.67,3.17a10.8,10.8,0,0,1,3.81,8.77,11.28,11.28,0,0,1-1.74,6.32,11.06,11.06,0,0,1-4.93,4.07,18.78,18.78,0,0,1-7.62,1.41h-10l3.39-3.34v12.5Zm7.62-11.65-3.39-3.58h9.59a7.83,7.83,0,0,0,5.26-1.52,5.31,5.31,0,0,0,1.74-4.21,5.28,5.28,0,0,0-1.74-4.23,7.88,7.88,0,0,0-5.26-1.5h-9.59l3.39-3.62Zm13.3,11.65-8.23-11.94h8.13l8.32,11.94Z"/><path class="cls-2" d="M169.51,89.74a27.09,27.09,0,0,1-7.57-1,17.92,17.92,0,0,1-5.82-2.75l2.58-5.74a18.59,18.59,0,0,0,5,2.47,18.39,18.39,0,0,0,5.85,1,12.12,12.12,0,0,0,3.64-.44,4.27,4.27,0,0,0,2-1.25,2.78,2.78,0,0,0,.66-1.83,2.46,2.46,0,0,0-1-2.09,8.46,8.46,0,0,0-2.73-1.27c-1.13-.33-2.37-.64-3.73-.94s-2.73-.67-4.09-1.11A17.24,17.24,0,0,1,160.58,73a8.41,8.41,0,0,1-2.75-2.72A8.1,8.1,0,0,1,156.77,66a9.2,9.2,0,0,1,1.53-5.15,10.47,10.47,0,0,1,4.61-3.71,18.93,18.93,0,0,1,7.73-1.38,26.17,26.17,0,0,1,6.11.72,17.86,17.86,0,0,1,5.31,2.19l-2.35,5.78a19.78,19.78,0,0,0-4.61-1.95,17,17,0,0,0-4.51-.63,10.82,10.82,0,0,0-3.62.51,4.3,4.3,0,0,0-2,1.34,3.09,3.09,0,0,0-.61,1.91,2.43,2.43,0,0,0,1,2,8.25,8.25,0,0,0,2.73,1.25c1.13.31,2.37.62,3.74.94s2.72.67,4.09,1.08a15.52,15.52,0,0,1,3.73,1.64,8.25,8.25,0,0,1,2.75,2.73,7.88,7.88,0,0,1,1.06,4.27,8.92,8.92,0,0,1-1.55,5.08,10.85,10.85,0,0,1-4.63,3.71A18.73,18.73,0,0,1,169.51,89.74Z"/><path class="cls-2" d="M203.3,89.74q-7,0-11-3.9T188.4,74.7V56.28H196V74.42q0,4.69,1.93,6.77a8.09,8.09,0,0,0,10.81,0q1.92-2.07,1.92-6.77V56.28h7.52V74.7q0,7.24-3.95,11.14T203.3,89.74Z"/><path class="cls-2" d="M225.72,89.18V56.28H232L246,79.5h-3.34l13.77-23.22h6.25l.1,32.9h-7.15l0-22h1.32l-11,18.47H242.5L231.27,67.23h1.6v22Z"/><path class="cls-2" d="M270.61,89.18V56.28h6.3l14,23.22h-3.34l13.78-23.22h6.25l.09,32.9h-7.14l-.05-22h1.32l-11,18.47h-3.43L276.15,67.23h1.6v22Z"/><path class="cls-2" d="M315.49,89.18V56.28h7.62v32.9Z"/><path class="cls-2" d="M337.72,89.18V62.48H327.19v-6.2h28.67v6.2H345.34v26.7Z"/><path class="cls-1" d="M49.56,0V99.11A49.56,49.56,0,1,1,49.56,0Z"/></g></g></svg>