<svg xmlns="http://www.w3.org/2000/svg" viewBox="0 0 351.07 320.8"><g id="Layer_2" data-name="Layer 2"><g id="Layer_1-2" data-name="Layer 1"><path d="M32.22,239.34a34.65,34.65,0,0,1-12.44-2.19,29.26,29.26,0,0,1-10-6.24,28.8,28.8,0,0,1-6.57-9.5,31.69,31.69,0,0,1,0-23.95A28.57,28.57,0,0,1,9.87,188a29.85,29.85,0,0,1,10-6.24,34.52,34.52,0,0,1,12.48-2.19,34.27,34.27,0,0,1,13.59,2.6,26.64,26.64,0,0,1,10.2,7.65l-8.59,7.93a20,20,0,0,0-6.61-5.08,18.53,18.53,0,0,0-7.93-1.7,20.25,20.25,0,0,0-7.43,1.32,17,17,0,0,0-5.87,3.8,17.48,17.48,0,0,0-3.84,5.87,21.44,21.44,0,0,0,0,15,17.38,17.38,0,0,0,3.84,5.87,16.85,16.85,0,0,0,5.87,3.8A20.25,20.25,0,0,0,33,227.94a18.53,18.53,0,0,0,7.93-1.69,19.63,19.63,0,0,0,6.61-5.17L56.09,229a27,27,0,0,1-10.2,7.69A34,34,0,0,1,32.22,239.34Z"/><path d="M55.59,238.35l25.78-57.83H94.58l25.86,57.83h-14l-21.15-51h5.29l-21.23,51ZM68.48,226,72,215.8h29.74L105.4,226Z"/><path d="M126.47,238.35V180.52h24.7q12.06,0,18.75,5.58t6.69,15.41a19.81,19.81,0,0,1-3.06,11.11,19.39,19.39,0,0,1-8.67,7.14,33,33,0,0,1-13.38,2.48H133.9l5.95-5.87v22Zm13.38-20.49-5.95-6.28h16.85q6.19,0,9.26-2.68a10.54,10.54,0,0,0,0-14.83q-3.06-2.64-9.26-2.64H133.9l5.95-6.36Zm23.38,20.49-14.46-21h14.29l14.62,21Z"/><path d="M187.18,238.35V180.52h43.7v10.74h-30.4v36.35H232v10.74Zm12.31-24.12V203.82h27.84v10.41Z"/><path d="M242.61,238.35V180.52h43.7v10.74h-30.4v36.35h31.47v10.74Zm12.31-24.12V203.82h27.83v10.41Z"/><path d="M298,238.35V180.52h24.7q12.06,0,18.75,5.58t6.69,15.41a19.81,19.81,0,0,1-3.06,11.11,19.45,19.45,0,0,1-8.67,7.14,33,33,0,0,1-13.38,2.48h-17.6l5.95-5.87v22Zm13.38-20.49-5.95-6.28h16.85c4.13,0,7.22-.89,9.25-2.68a10.51,10.51,0,0,0,0-14.83c-2-1.76-5.12-2.64-9.25-2.64H305.47l5.95-6.36Zm23.38,20.49-14.46-21h14.29l14.62,21Z"/><path d="M23.54,320.8a47.18,47.18,0,0,1-13.3-1.86A31.19,31.19,0,0,1,0,314.11L4.54,304a33,33,0,0,0,8.8,4.33,32.34,32.34,0,0,0,10.28,1.7,21.23,21.23,0,0,0,6.41-.79,7.45,7.45,0,0,0,3.59-2.19,4.92,4.92,0,0,0,1.16-3.22A4.36,4.36,0,0,0,33,300.19,14.72,14.72,0,0,0,28.17,298q-3-.87-6.57-1.66t-7.19-1.94a30.42,30.42,0,0,1-6.56-3A14.46,14.46,0,0,1,3,286.6,14.12,14.12,0,0,1,1.16,279,16.14,16.14,0,0,1,3.84,270a18.36,18.36,0,0,1,8.1-6.52A33,33,0,0,1,25.53,261a45.58,45.58,0,0,1,10.73,1.28,31.29,31.29,0,0,1,9.34,3.84l-4.13,10.16a35.57,35.57,0,0,0-8.1-3.43,29.91,29.91,0,0,0-7.93-1.11,18.63,18.63,0,0,0-6.36.91A7.45,7.45,0,0,0,15.53,275a5.45,5.45,0,0,0-1.07,3.35,4.28,4.28,0,0,0,1.81,3.59,14.31,14.31,0,0,0,4.79,2.19q3,.83,6.57,1.65c2.4.55,4.79,1.19,7.19,1.9a28,28,0,0,1,6.56,2.89,14.68,14.68,0,0,1,4.84,4.79,14,14,0,0,1,1.86,7.52,15.61,15.61,0,0,1-2.73,8.92,19,19,0,0,1-8.14,6.53Q31.81,320.8,23.54,320.8Z"/><path d="M82.93,320.8q-12.3,0-19.24-6.86t-6.94-19.58V262H70.13v31.89q0,8.25,3.39,11.89T83,309.4q6.11,0,9.5-3.64t3.38-11.89V262h13.22v32.38q0,12.72-6.94,19.58T82.93,320.8Z"/><path d="M122.34,319.81V262h11.07L158,302.79h-5.86L176.36,262h11l.16,57.83H175l-.09-38.58h2.32l-19.33,32.46h-6l-19.75-32.46h2.81v38.58Z"/><path d="M201.22,319.81V262h11.07l24.62,40.81H231L255.25,262h11l.17,57.83H253.84l-.08-38.58h2.31l-19.33,32.46h-6L211,281.23h2.81v38.58Z"/><path d="M280.11,319.81V262h13.38v57.83Z"/><path d="M319.18,319.81V272.89h-18.5V262h50.39v10.91H332.56v46.92Z"/><path d="M275.42,72.56l-30.53,0c16.8,0,30.42,16.24,30.42,36.3a39.87,39.87,0,0,1-8.92,25.66c-5.5,6.58-13.1,10.64-21.5,10.64H155.5l-.1-72.6h30.52c-16.79,0-30.42-16.26-30.42-36.3a40,40,0,0,1,8.92-25.67C169.92,4.06,177.52,0,185.92,0h89.39Z"/><path d="M148.24,0V145.2a72.6,72.6,0,0,1,0-145.2Z"/></g></g></svg>